<mxfile host="app.diagrams.net" modified="2022-11-04T00:57:04.390Z" agent="5.0 (Windows NT 10.0; Win64; x64) AppleWebKit/537.36 (KHTML, like Gecko) Chrome/106.0.0.0 Safari/537.36" etag="GMYOIXTG6Y8bDYzYNR62" version="20.5.1" type="github">
  <diagram id="gM28AJaofEodlNpBGt-y" name="Page-1">
    <mxGraphModel dx="2368" dy="1748" grid="1" gridSize="10" guides="1" tooltips="1" connect="1" arrows="1" fold="1" page="1" pageScale="1" pageWidth="850" pageHeight="1100" math="0" shadow="0">
      <root>
        <mxCell id="0" />
        <mxCell id="1" parent="0" />
        <mxCell id="gjqj3qgDCXjVx3sGMXuX-18" style="edgeStyle=orthogonalEdgeStyle;rounded=0;orthogonalLoop=1;jettySize=auto;html=1;entryX=0.5;entryY=0;entryDx=0;entryDy=0;fontSize=20;" edge="1" parent="1" source="gjqj3qgDCXjVx3sGMXuX-1" target="gjqj3qgDCXjVx3sGMXuX-2">
          <mxGeometry relative="1" as="geometry" />
        </mxCell>
        <mxCell id="gjqj3qgDCXjVx3sGMXuX-40" style="edgeStyle=orthogonalEdgeStyle;rounded=0;orthogonalLoop=1;jettySize=auto;html=1;fontSize=18;entryX=1;entryY=0.5;entryDx=0;entryDy=0;" edge="1" parent="1" source="gjqj3qgDCXjVx3sGMXuX-1" target="gjqj3qgDCXjVx3sGMXuX-38">
          <mxGeometry relative="1" as="geometry">
            <mxPoint x="492" y="1380" as="targetPoint" />
            <Array as="points">
              <mxPoint x="510" y="450" />
              <mxPoint x="510" y="1365" />
            </Array>
          </mxGeometry>
        </mxCell>
        <mxCell id="gjqj3qgDCXjVx3sGMXuX-1" value="&lt;font style=&quot;font-size: 20px;&quot;&gt;1&lt;/font&gt;" style="ellipse;whiteSpace=wrap;html=1;aspect=fixed;" vertex="1" parent="1">
          <mxGeometry x="-10" y="410" width="80" height="80" as="geometry" />
        </mxCell>
        <mxCell id="gjqj3qgDCXjVx3sGMXuX-22" style="edgeStyle=orthogonalEdgeStyle;rounded=0;orthogonalLoop=1;jettySize=auto;html=1;entryX=0.5;entryY=0;entryDx=0;entryDy=0;fontSize=18;" edge="1" parent="1" source="gjqj3qgDCXjVx3sGMXuX-2" target="gjqj3qgDCXjVx3sGMXuX-3">
          <mxGeometry relative="1" as="geometry" />
        </mxCell>
        <mxCell id="gjqj3qgDCXjVx3sGMXuX-2" value="&lt;font style=&quot;font-size: 20px;&quot;&gt;2&lt;/font&gt;" style="ellipse;whiteSpace=wrap;html=1;aspect=fixed;" vertex="1" parent="1">
          <mxGeometry x="-10" y="540" width="80" height="80" as="geometry" />
        </mxCell>
        <mxCell id="gjqj3qgDCXjVx3sGMXuX-24" style="edgeStyle=orthogonalEdgeStyle;rounded=0;orthogonalLoop=1;jettySize=auto;html=1;entryX=0.5;entryY=0;entryDx=0;entryDy=0;fontSize=18;" edge="1" parent="1" source="gjqj3qgDCXjVx3sGMXuX-3" target="gjqj3qgDCXjVx3sGMXuX-5">
          <mxGeometry relative="1" as="geometry" />
        </mxCell>
        <mxCell id="gjqj3qgDCXjVx3sGMXuX-25" style="rounded=0;orthogonalLoop=1;jettySize=auto;html=1;entryX=0.5;entryY=0;entryDx=0;entryDy=0;fontSize=18;" edge="1" parent="1" source="gjqj3qgDCXjVx3sGMXuX-3" target="gjqj3qgDCXjVx3sGMXuX-4">
          <mxGeometry relative="1" as="geometry" />
        </mxCell>
        <mxCell id="gjqj3qgDCXjVx3sGMXuX-3" value="&lt;font style=&quot;font-size: 20px;&quot;&gt;3&lt;/font&gt;" style="ellipse;whiteSpace=wrap;html=1;aspect=fixed;" vertex="1" parent="1">
          <mxGeometry x="-10" y="690" width="80" height="80" as="geometry" />
        </mxCell>
        <mxCell id="gjqj3qgDCXjVx3sGMXuX-33" style="edgeStyle=none;rounded=0;orthogonalLoop=1;jettySize=auto;html=1;entryX=0.5;entryY=0;entryDx=0;entryDy=0;fontSize=18;" edge="1" parent="1" source="gjqj3qgDCXjVx3sGMXuX-4" target="gjqj3qgDCXjVx3sGMXuX-36">
          <mxGeometry relative="1" as="geometry">
            <mxPoint x="180" y="1020" as="targetPoint" />
          </mxGeometry>
        </mxCell>
        <mxCell id="gjqj3qgDCXjVx3sGMXuX-4" value="&lt;font style=&quot;font-size: 20px;&quot;&gt;4&lt;/font&gt;" style="ellipse;whiteSpace=wrap;html=1;aspect=fixed;" vertex="1" parent="1">
          <mxGeometry x="140" y="865" width="80" height="80" as="geometry" />
        </mxCell>
        <mxCell id="gjqj3qgDCXjVx3sGMXuX-29" style="edgeStyle=none;rounded=0;orthogonalLoop=1;jettySize=auto;html=1;entryX=0.5;entryY=0;entryDx=0;entryDy=0;fontSize=18;" edge="1" parent="1" source="gjqj3qgDCXjVx3sGMXuX-5" target="gjqj3qgDCXjVx3sGMXuX-36">
          <mxGeometry relative="1" as="geometry">
            <mxPoint x="30" y="1020" as="targetPoint" />
          </mxGeometry>
        </mxCell>
        <mxCell id="gjqj3qgDCXjVx3sGMXuX-5" value="&lt;font style=&quot;font-size: 20px;&quot;&gt;5&lt;/font&gt;" style="ellipse;whiteSpace=wrap;html=1;aspect=fixed;" vertex="1" parent="1">
          <mxGeometry x="-10" y="865" width="80" height="80" as="geometry" />
        </mxCell>
        <mxCell id="gjqj3qgDCXjVx3sGMXuX-21" style="edgeStyle=orthogonalEdgeStyle;rounded=0;orthogonalLoop=1;jettySize=auto;html=1;entryX=0;entryY=0.5;entryDx=0;entryDy=0;fontSize=18;" edge="1" parent="1" source="gjqj3qgDCXjVx3sGMXuX-8" target="gjqj3qgDCXjVx3sGMXuX-2">
          <mxGeometry relative="1" as="geometry" />
        </mxCell>
        <mxCell id="gjqj3qgDCXjVx3sGMXuX-8" value="&lt;pre style=&quot;background-color: rgb(43, 43, 43); color: rgb(169, 183, 198); font-family: &amp;quot;JetBrains Mono&amp;quot;, monospace; font-size: 18px;&quot;&gt;&lt;span style=&quot;color:#cc7832;&quot;&gt;while&lt;/span&gt;(x&amp;lt;&lt;span style=&quot;color:#6897bb;&quot;&gt;100&lt;/span&gt;)&lt;/pre&gt;" style="text;html=1;strokeColor=none;fillColor=none;align=center;verticalAlign=middle;whiteSpace=wrap;rounded=0;" vertex="1" parent="1">
          <mxGeometry x="-380" y="555" width="130" height="50" as="geometry" />
        </mxCell>
        <mxCell id="gjqj3qgDCXjVx3sGMXuX-23" style="edgeStyle=orthogonalEdgeStyle;rounded=0;orthogonalLoop=1;jettySize=auto;html=1;entryX=0;entryY=0.5;entryDx=0;entryDy=0;fontSize=18;" edge="1" parent="1" source="gjqj3qgDCXjVx3sGMXuX-9" target="gjqj3qgDCXjVx3sGMXuX-3">
          <mxGeometry relative="1" as="geometry" />
        </mxCell>
        <mxCell id="gjqj3qgDCXjVx3sGMXuX-9" value="&lt;pre style=&quot;background-color: rgb(43, 43, 43); color: rgb(169, 183, 198); font-family: &amp;quot;JetBrains Mono&amp;quot;, monospace; font-size: 19px;&quot;&gt;&lt;span style=&quot;color:#cc7832;&quot;&gt;if &lt;/span&gt;(x%&lt;span style=&quot;color:#6897bb;&quot;&gt;2 &lt;/span&gt;==&lt;span style=&quot;color:#6897bb;&quot;&gt;0 &lt;/span&gt;&amp;amp;&amp;amp; !contolFlowEnd)&lt;/pre&gt;" style="text;whiteSpace=wrap;html=1;fontSize=18;" vertex="1" parent="1">
          <mxGeometry x="-505" y="695" width="320" height="70" as="geometry" />
        </mxCell>
        <mxCell id="gjqj3qgDCXjVx3sGMXuX-35" style="edgeStyle=none;rounded=0;orthogonalLoop=1;jettySize=auto;html=1;entryX=0;entryY=0.5;entryDx=0;entryDy=0;fontSize=18;" edge="1" parent="1" source="gjqj3qgDCXjVx3sGMXuX-10" target="gjqj3qgDCXjVx3sGMXuX-5">
          <mxGeometry relative="1" as="geometry" />
        </mxCell>
        <mxCell id="gjqj3qgDCXjVx3sGMXuX-10" value="&lt;pre style=&quot;background-color: rgb(43, 43, 43); color: rgb(169, 183, 198); font-family: &amp;quot;JetBrains Mono&amp;quot;, monospace; font-size: 18px;&quot;&gt;parity = &lt;span style=&quot;color:#6897bb;&quot;&gt;0&lt;/span&gt;&lt;span style=&quot;color:#cc7832;&quot;&gt;;&lt;/span&gt;&lt;/pre&gt;" style="text;whiteSpace=wrap;html=1;fontSize=19;" vertex="1" parent="1">
          <mxGeometry x="-375" y="940" width="110" height="70" as="geometry" />
        </mxCell>
        <mxCell id="gjqj3qgDCXjVx3sGMXuX-34" style="edgeStyle=none;rounded=0;orthogonalLoop=1;jettySize=auto;html=1;fontSize=18;entryX=0;entryY=0.5;entryDx=0;entryDy=0;" edge="1" parent="1" source="gjqj3qgDCXjVx3sGMXuX-11" target="gjqj3qgDCXjVx3sGMXuX-4">
          <mxGeometry relative="1" as="geometry">
            <mxPoint x="-10" y="1060" as="targetPoint" />
          </mxGeometry>
        </mxCell>
        <mxCell id="gjqj3qgDCXjVx3sGMXuX-11" value="&lt;pre style=&quot;background-color: rgb(43, 43, 43); color: rgb(169, 183, 198); font-family: &amp;quot;JetBrains Mono&amp;quot;, monospace; font-size: 18px;&quot;&gt;parity =&lt;span style=&quot;color:#6897bb;&quot;&gt;1&lt;/span&gt;&lt;span style=&quot;color:#cc7832;&quot;&gt;;&lt;/span&gt;&lt;/pre&gt;" style="text;whiteSpace=wrap;html=1;fontSize=19;" vertex="1" parent="1">
          <mxGeometry x="-370" y="1100" width="100" height="70" as="geometry" />
        </mxCell>
        <mxCell id="gjqj3qgDCXjVx3sGMXuX-12" value="&lt;pre style=&quot;background-color: rgb(43, 43, 43); color: rgb(169, 183, 198); font-family: &amp;quot;JetBrains Mono&amp;quot;, monospace; font-size: 18px;&quot;&gt;x++&lt;span style=&quot;color:#cc7832;&quot;&gt;;&lt;/span&gt;&lt;/pre&gt;" style="text;whiteSpace=wrap;html=1;fontSize=19;" vertex="1" parent="1">
          <mxGeometry x="330" y="860" width="50" height="60" as="geometry" />
        </mxCell>
        <mxCell id="gjqj3qgDCXjVx3sGMXuX-13" value="&lt;pre style=&quot;background-color: rgb(43, 43, 43); color: rgb(169, 183, 198); font-family: &amp;quot;JetBrains Mono&amp;quot;, monospace; font-size: 18px;&quot;&gt;&lt;span style=&quot;color:#cc7832;&quot;&gt;switch&lt;/span&gt;(parity)&lt;/pre&gt;" style="text;whiteSpace=wrap;html=1;fontSize=19;" vertex="1" parent="1">
          <mxGeometry x="-360" y="1325" width="140" height="70" as="geometry" />
        </mxCell>
        <mxCell id="gjqj3qgDCXjVx3sGMXuX-14" value="&lt;pre style=&quot;background-color: rgb(43, 43, 43); color: rgb(169, 183, 198); font-family: &amp;quot;JetBrains Mono&amp;quot;, monospace; font-size: 18px;&quot;&gt;System.out.println(&lt;span style=&quot;color:#6a8759;&quot;&gt;&quot;Even&quot;&lt;/span&gt;)&lt;span style=&quot;color:#cc7832;&quot;&gt;;&lt;/span&gt;&lt;/pre&gt;" style="text;whiteSpace=wrap;html=1;fontSize=19;" vertex="1" parent="1">
          <mxGeometry x="-490" y="1470" width="270" height="70" as="geometry" />
        </mxCell>
        <mxCell id="gjqj3qgDCXjVx3sGMXuX-15" value="&lt;pre style=&quot;background-color: rgb(43, 43, 43); color: rgb(169, 183, 198); font-family: &amp;quot;JetBrains Mono&amp;quot;, monospace; font-size: 18px;&quot;&gt;System.out.println(&lt;span style=&quot;color:#6a8759;&quot;&gt;&quot;Odd&quot;&lt;/span&gt;)&lt;span style=&quot;color:#cc7832;&quot;&gt;;&lt;/span&gt;&lt;/pre&gt;" style="text;whiteSpace=wrap;html=1;fontSize=19;" vertex="1" parent="1">
          <mxGeometry x="-485" y="1560" width="260" height="70" as="geometry" />
        </mxCell>
        <mxCell id="gjqj3qgDCXjVx3sGMXuX-16" value="&lt;pre style=&quot;background-color: rgb(43, 43, 43); color: rgb(169, 183, 198); font-family: &amp;quot;JetBrains Mono&amp;quot;, monospace; font-size: 18px;&quot;&gt;System.out.println(&lt;span style=&quot;color:#6a8759;&quot;&gt;&quot;Error&quot;&lt;/span&gt;)&lt;span style=&quot;color:#cc7832;&quot;&gt;;&lt;/span&gt;&lt;/pre&gt;" style="text;whiteSpace=wrap;html=1;fontSize=19;" vertex="1" parent="1">
          <mxGeometry x="-510" y="1640" width="280" height="70" as="geometry" />
        </mxCell>
        <mxCell id="gjqj3qgDCXjVx3sGMXuX-20" style="edgeStyle=orthogonalEdgeStyle;rounded=0;orthogonalLoop=1;jettySize=auto;html=1;entryX=0;entryY=0.5;entryDx=0;entryDy=0;fontSize=18;" edge="1" parent="1" source="gjqj3qgDCXjVx3sGMXuX-19" target="gjqj3qgDCXjVx3sGMXuX-1">
          <mxGeometry relative="1" as="geometry" />
        </mxCell>
        <mxCell id="gjqj3qgDCXjVx3sGMXuX-19" value="&lt;pre style=&quot;background-color: rgb(43, 43, 43); color: rgb(169, 183, 198); font-family: &amp;quot;JetBrains Mono&amp;quot;, monospace; font-size: 18px;&quot;&gt;&lt;span style=&quot;color:#cc7832;&quot;&gt;int &lt;/span&gt;x = &lt;span style=&quot;color:#6897bb;&quot;&gt;0&lt;/span&gt;&lt;span style=&quot;color:#cc7832;&quot;&gt;;&lt;br&gt;&lt;/span&gt;&lt;span style=&quot;color:#cc7832;&quot;&gt;int &lt;/span&gt;parity = &lt;span style=&quot;color:#6897bb;&quot;&gt;0&lt;/span&gt;&lt;span style=&quot;color:#cc7832;&quot;&gt;;&lt;br&gt;&lt;/span&gt;&lt;span style=&quot;color:#cc7832;&quot;&gt;boolean &lt;/span&gt;contolFlowEnd = &lt;span style=&quot;color:#cc7832;&quot;&gt;false;&lt;/span&gt;&lt;/pre&gt;" style="text;whiteSpace=wrap;html=1;fontSize=20;" vertex="1" parent="1">
          <mxGeometry x="-475" y="400" width="300" height="100" as="geometry" />
        </mxCell>
        <mxCell id="gjqj3qgDCXjVx3sGMXuX-26" value="X%2 ==0 and !controlFlowend" style="text;html=1;strokeColor=none;fillColor=none;align=center;verticalAlign=middle;whiteSpace=wrap;rounded=0;fontSize=18;" vertex="1" parent="1">
          <mxGeometry x="-290" y="800" width="310" height="30" as="geometry" />
        </mxCell>
        <mxCell id="gjqj3qgDCXjVx3sGMXuX-28" value="&lt;strike&gt;X%2 ==0 and !controlFlowend&lt;/strike&gt;" style="text;html=1;strokeColor=none;fillColor=none;align=center;verticalAlign=middle;whiteSpace=wrap;rounded=0;fontSize=18;" vertex="1" parent="1">
          <mxGeometry x="95" y="780" width="310" height="30" as="geometry" />
        </mxCell>
        <mxCell id="gjqj3qgDCXjVx3sGMXuX-37" style="edgeStyle=orthogonalEdgeStyle;rounded=0;orthogonalLoop=1;jettySize=auto;html=1;fontSize=18;entryX=1;entryY=0.5;entryDx=0;entryDy=0;" edge="1" parent="1" source="gjqj3qgDCXjVx3sGMXuX-36" target="gjqj3qgDCXjVx3sGMXuX-2">
          <mxGeometry relative="1" as="geometry">
            <Array as="points">
              <mxPoint x="400" y="1220" />
              <mxPoint x="400" y="580" />
            </Array>
          </mxGeometry>
        </mxCell>
        <mxCell id="gjqj3qgDCXjVx3sGMXuX-36" value="8" style="ellipse;whiteSpace=wrap;html=1;aspect=fixed;fontSize=18;" vertex="1" parent="1">
          <mxGeometry x="-10" y="1180" width="80" height="80" as="geometry" />
        </mxCell>
        <mxCell id="gjqj3qgDCXjVx3sGMXuX-46" style="rounded=0;orthogonalLoop=1;jettySize=auto;html=1;entryX=0.5;entryY=0;entryDx=0;entryDy=0;fontSize=18;" edge="1" parent="1" source="gjqj3qgDCXjVx3sGMXuX-38" target="gjqj3qgDCXjVx3sGMXuX-43">
          <mxGeometry relative="1" as="geometry" />
        </mxCell>
        <mxCell id="gjqj3qgDCXjVx3sGMXuX-47" style="edgeStyle=none;rounded=0;orthogonalLoop=1;jettySize=auto;html=1;entryX=0.5;entryY=0;entryDx=0;entryDy=0;fontSize=18;" edge="1" parent="1" source="gjqj3qgDCXjVx3sGMXuX-38" target="gjqj3qgDCXjVx3sGMXuX-44">
          <mxGeometry relative="1" as="geometry" />
        </mxCell>
        <mxCell id="gjqj3qgDCXjVx3sGMXuX-48" style="edgeStyle=none;rounded=0;orthogonalLoop=1;jettySize=auto;html=1;entryX=0.5;entryY=0;entryDx=0;entryDy=0;fontSize=18;" edge="1" parent="1" source="gjqj3qgDCXjVx3sGMXuX-38" target="gjqj3qgDCXjVx3sGMXuX-45">
          <mxGeometry relative="1" as="geometry" />
        </mxCell>
        <mxCell id="gjqj3qgDCXjVx3sGMXuX-38" value="9" style="ellipse;whiteSpace=wrap;html=1;aspect=fixed;fontSize=18;" vertex="1" parent="1">
          <mxGeometry x="-10" y="1325" width="80" height="80" as="geometry" />
        </mxCell>
        <mxCell id="gjqj3qgDCXjVx3sGMXuX-43" value="10" style="ellipse;whiteSpace=wrap;html=1;aspect=fixed;fontSize=18;" vertex="1" parent="1">
          <mxGeometry x="-140" y="1510" width="80" height="80" as="geometry" />
        </mxCell>
        <mxCell id="gjqj3qgDCXjVx3sGMXuX-44" value="11" style="ellipse;whiteSpace=wrap;html=1;aspect=fixed;fontSize=18;" vertex="1" parent="1">
          <mxGeometry x="-10" y="1510" width="80" height="80" as="geometry" />
        </mxCell>
        <mxCell id="gjqj3qgDCXjVx3sGMXuX-45" value="12" style="ellipse;whiteSpace=wrap;html=1;aspect=fixed;fontSize=18;" vertex="1" parent="1">
          <mxGeometry x="120" y="1510" width="80" height="80" as="geometry" />
        </mxCell>
      </root>
    </mxGraphModel>
  </diagram>
</mxfile>
